<svg aria-hidden="true" style="position: absolute; width: 0; height: 0; overflow: hidden;" version="1.1" xmlns="http://www.w3.org/2000/svg" xmlns:xlink="http://www.w3.org/1999/xlink">
<defs>
<symbol id="icon-zoom-cartsearch" viewBox="0 0 32 32">
<title>search</title>
<path d="M32 29.469l-9.447-9.447c1.568-2.093 2.509-4.681 2.509-7.491 0-6.91-5.621-12.531-12.531-12.531s-12.531 5.621-12.531 12.531 5.621 12.531 12.531 12.531c2.81 0 5.398-0.941 7.491-2.509l9.447 9.447 2.531-2.531zM1.193 12.531c0-6.252 5.086-11.338 11.338-11.338s11.338 5.086 11.338 11.338-5.086 11.338-11.338 11.338-11.338-5.086-11.338-11.338z"></path>
</symbol>
<symbol id="icon-zoom-cartshopping-cart" viewBox="0 0 32 32">
<title>shopping-cart</title>
<path d="M28 26.2v-2.2h-18.8l1.2-2.2 18.4-1.8 3.2-12h-24.6l-1.4-6h-6v2h4.4l4.2 16.8-2.6 5.2v3c0 1.6 1.4 3 3 3s3-1.4 3-3-1.4-3-3-3h15v3c0 1.6 1.4 3 3 3s3-1.4 3-3c0-1.4-0.8-2.4-2-2.8zM8 10h21.4l-2.2 8-16.8 1.8-2.4-9.8z"></path>
</symbol>
</defs>
</svg>
